<svg width="79" height="79" viewBox="0 0 79 79" fill="none" xmlns="http://www.w3.org/2000/svg">
<path d="M1.48027 5.36553C1.49848 3.16941 3.28394 1.39869 5.48014 1.39869H73.973C76.1952 1.39869 77.9914 3.21 77.9729 5.43213L77.7533 31.6993L77.5166 60.0167C77.5074 61.1147 76.6147 62 75.5166 62H59.7697L40.0132 77.3987V62L5.09125 62.4447C2.84937 62.4733 1.02186 60.6539 1.04045 58.4119L1.48027 5.36553Z" fill="white"/>
<path d="M72.9524 0.500116H72.9887C76.0308 0.519598 78.5001 3.00093 78.5001 6.04747V57.3022C78.5001 60.3607 76.0112 62.8496 72.9527 62.8496H59.4667H59.2948L59.1592 62.9553L39.353 78.3969C39.2651 78.4652 39.1595 78.5 39.0523 78.5C38.9787 78.5 38.9061 78.4836 38.8404 78.4512L38.8388 78.4505C38.6707 78.3683 38.5648 78.1982 38.5648 78.0125V63.3497V62.8497H38.0648H6.04747C2.98889 62.8497 0.5 60.3608 0.5 57.3023V6.04758C0.5 2.98901 2.9889 0.500116 6.04747 0.500116H72.9524ZM38.0648 63.8497V78.0125C38.0648 78.3896 38.2798 78.7338 38.6193 78.8997L38.0648 63.8497ZM39.5396 75.9909V77.0147L40.347 76.3852L58.8268 61.9779C58.9124 61.9113 59.0185 61.8749 59.1274 61.8749H72.9524C75.4746 61.8749 77.5249 59.8246 77.5249 57.3024L77.5247 6.04785C77.5247 3.52571 75.4743 1.47538 72.9522 1.47538H6.04724C3.5251 1.47538 1.47478 3.52571 1.47478 6.04785V57.3025C1.47478 59.8247 3.5251 61.875 6.04724 61.875H39.0521C39.3217 61.875 39.5396 62.0928 39.5396 62.3625V75.9909Z" fill="black" stroke="black"/>
<path fill-rule="evenodd" clip-rule="evenodd" d="M48.9355 25.2117C48.9391 25.2064 48.9423 25.2005 48.9448 25.1942C48.9486 25.1846 48.9489 25.1772 48.9489 25.1772C48.9489 25.1387 48.9492 25.1002 48.9498 25.0618L48.9355 25.2117ZM48.9511 37.2031C48.9497 37.1451 48.949 37.0869 48.9489 37.0286H48.9342L48.9511 37.2031ZM31.2746 37.0286H31.2601C31.26 37.0859 31.2593 37.1431 31.2579 37.2001L31.2746 37.0286ZM31.2589 25.0444C31.2597 25.0886 31.2601 25.1328 31.2601 25.1772V25.218H31.2747L31.2589 25.0444ZM19.6324 31.7542C17.9857 33.0113 17.6064 34.9304 17.6064 37.0183C17.6064 40.6415 20.487 44.3115 24.0281 44.3115C27.5691 44.3115 31.2579 40.8233 31.2579 37.2001C31.2746 37.0286 31.3459 37.0183 31.7882 37.0183L39.8921 37.0286H48.9489C49.3912 37.0286 49.2115 36.8108 49.2115 37.2634C49.2115 40.8865 52.6399 44.3115 56.1809 44.3115C59.7219 44.3115 63.3933 40.8233 63.3933 37.2001C63.3933 35.1114 62.6088 33.0113 60.9622 31.7542C60.7598 31.5999 60.557 31.356 60.557 31.0977C60.557 30.8395 60.7598 31.2521 60.9622 31.0977C62.6088 29.8414 63.3933 27.3178 63.3933 25.2284C63.3933 21.6052 59.7219 18.6066 56.1809 18.6066C52.6399 18.6066 49.7593 21.554 49.7593 25.1772C49.7593 25.6298 49.4014 26.0472 48.959 26.0472H31.2499C30.8076 26.0472 31.2589 25.497 31.2589 25.0444H31.2499C31.2499 21.4212 27.5691 18.6066 24.0281 18.6066C20.487 18.6066 17.6064 21.554 17.6064 25.1772C17.6064 27.2659 17.9858 29.3736 19.6324 30.6298C19.8348 30.7842 20.5191 30.8395 20.5191 31.0977C20.1972 31.0977 19.0677 31.7542 19.6324 31.7542Z" fill="#EFE4CE"/>
<path d="M48.7281 24.9029H49.1819L49.2258 24.4513C49.6068 20.5341 52.8811 17.5 56.8444 17.5C61.0644 17.5 64.5 20.9391 64.5 25.1667C64.5 27.2887 63.6502 29.2551 62.1395 30.6955L61.76 31.0573L62.1394 31.4192C63.6503 32.8605 64.5 34.8269 64.5 36.9481C64.5 41.1755 61.0646 44.6148 56.8444 44.6148C52.8815 44.6148 49.6105 41.5829 49.2264 37.7134L49.1816 37.2628H48.7288H32.2712H31.8184L31.7736 37.7133C31.3892 41.5828 28.1182 44.6148 24.1556 44.6148C19.9356 44.6148 16.5 41.1757 16.5 36.9481C16.5 34.827 17.3497 32.8604 18.8606 31.4192L19.24 31.0573L18.8605 30.6955C17.3497 29.2551 16.5 27.2879 16.5 25.1667C16.5 20.9393 19.9354 17.5 24.1556 17.5C28.1342 17.5 31.4163 20.5565 31.7781 24.4492L31.8202 24.9029H32.2759H48.7281ZM61.0377 31.3102L61.0374 31.31C60.9583 31.251 60.9111 31.157 60.9111 31.0576C60.9111 30.9581 60.9583 30.8641 61.0374 30.8051L61.0375 30.805C62.8371 29.4613 63.873 27.4046 63.873 25.1669C63.873 21.2865 60.7212 18.1294 56.8444 18.1294C52.9676 18.1294 49.8158 21.2865 49.8158 25.1669C49.8158 25.3815 49.637 25.5325 49.5022 25.5325H31.4981C31.3251 25.5325 31.1845 25.3926 31.1845 25.2178V25.1669C31.1845 21.2865 28.0327 18.1294 24.1559 18.1294C20.2791 18.1294 17.1273 21.2865 17.1273 25.1669C17.1273 27.4037 18.1623 29.4613 19.962 30.805L19.9621 30.8051C20.0412 30.8641 20.0885 30.9581 20.0885 31.0576C20.0885 31.1562 20.0418 31.2502 19.9613 31.3106C18.162 32.6551 17.1273 34.7125 17.1273 36.9483C17.1273 40.8287 20.2791 43.9858 24.1559 43.9858C28.0327 43.9858 31.1845 40.8287 31.1845 36.9483C31.1845 36.7735 31.3252 36.6336 31.4981 36.6336H49.5022C49.6751 36.6336 49.8158 36.7735 49.8158 36.9483C49.8158 40.8287 52.9676 43.9858 56.8444 43.9858C60.7212 43.9858 63.873 40.8287 63.873 36.9483C63.873 34.7112 62.8371 32.6546 61.0377 31.3102Z" stroke="black"/>
</svg>
