<svg width="87" height="48" viewBox="0 0 87 48" fill="none" xmlns="http://www.w3.org/2000/svg">
<path fill-rule="evenodd" clip-rule="evenodd" d="M25.1202 1.72016C19.5503 -1.7248 8.87563 -1.29258 1.70831 15.3675C-0.473969 20.4402 -0.323331 23.9491 0.811476 26.3162C2.39192 29.6128 6.0388 30.9244 9.21798 31.159V32.1383C9.21798 36.3082 11.9646 39.8152 15.6913 40.8343C15.725 41.6156 15.7505 42.7646 15.6314 43.8945C15.5733 44.4447 15.2794 45.5218 15.1517 46.1271C14.9759 46.9595 15.4876 47.7828 16.2935 47.9644C17.0992 48.1457 17.8962 47.6172 18.0719 46.7848C18.2179 46.093 18.5364 44.8577 18.6027 44.2285C18.715 43.162 18.7137 41.9574 18.6906 41.0981C20.7192 40.9131 22.6301 39.9977 24.0813 38.4985C24.476 38.0908 24.8289 37.648 25.137 37.177C25.4453 37.648 25.7982 38.0908 26.1927 38.4985C27.6446 39.9982 29.5563 40.9136 31.5852 41.0983C31.4742 43.0138 31.9419 44.1498 32.1862 45.0811C32.4019 45.9035 33.2234 46.3902 34.0195 46.1673C34.8155 45.9444 35.2868 45.0957 35.0711 44.2734C34.8698 43.5066 34.4109 42.5617 34.6064 40.849C34.6073 40.8417 34.608 40.8343 34.6087 40.8271C38.322 39.7993 41.0562 36.2987 41.0562 32.1383V31.1564C41.4773 31.1243 41.9064 31.0734 42.3377 31.0013C44.3342 33.7971 47.3811 36.1288 51.0864 37.671C51.1203 38.4524 51.1465 39.6058 51.027 40.7402C50.9689 41.2904 50.675 42.3676 50.5473 42.9728C50.3716 43.8052 50.8832 44.6285 51.6891 44.8101C52.4949 44.9914 53.2918 44.4629 53.4676 43.6305C53.6135 42.9387 53.932 41.7034 53.9982 41.0742C54.0803 40.296 54.1019 39.4439 54.0984 38.7062C56.4027 39.3422 58.8905 39.6911 61.4874 39.6911C63.3885 39.6911 65.2317 39.5045 66.9868 39.1555C67.0743 40.3743 67.394 41.211 67.5818 41.9268C67.7975 42.7492 68.6191 43.2359 69.4151 43.013C70.2112 42.7901 70.6824 41.9415 70.4667 41.1191C70.2944 40.4623 69.933 39.6748 69.9556 38.3861C73.5548 37.2256 76.6529 35.3528 78.9408 33.019C79.9069 32.0336 80.7313 30.9661 81.3948 29.834C82.3754 30.5217 83.0132 31.3159 83.0132 31.3159C83.5414 31.9704 84.4845 32.0588 85.118 31.5132C85.7516 30.9676 85.8372 29.9933 85.309 29.3388C85.309 29.3388 84.2494 28.0299 82.665 27.0147C82.8119 26.56 82.9347 26.0982 83.0322 25.6304C83.9129 25.896 84.4224 26.1926 84.4224 26.1926C85.1358 26.62 86.0511 26.3686 86.4648 25.6315C86.8785 24.8945 86.6352 23.9489 85.9216 23.5215C85.9216 23.5215 84.9428 22.9226 83.3023 22.5109C83.2779 21.7678 83.191 21.0358 83.0448 20.3183C83.5844 20.3978 83.9112 20.4967 83.9112 20.4967C84.7029 20.7354 85.5334 20.2648 85.7642 19.4469C85.9952 18.6289 85.5398 17.7711 84.7481 17.5325C84.7481 17.5325 83.6169 17.1924 81.9803 17.1576C81.4979 16.1464 80.8914 15.1797 80.1728 14.268L80.1929 13.9507C80.1929 13.9507 80.1515 7.63857 77.5639 3.81974C77.166 3.23246 76.4291 3.00552 75.7846 3.27174C75.7846 3.27174 72.8986 4.43037 70.8456 7.80419C68.0169 6.77654 64.8416 6.19741 61.4874 6.19741C59.7151 6.19741 57.9928 6.35896 56.3451 6.66316C56.3308 6.66557 56.3164 6.66816 56.3021 6.67113C54.9632 6.92049 53.6741 7.26378 52.4479 7.69081C50.4003 4.40425 47.5789 3.27174 47.5789 3.27174C46.9345 3.00552 46.1975 3.23246 45.7995 3.81974C45.0515 4.92373 44.5098 6.23224 44.1217 7.53852C37.4886 -1.31667 29.6305 -1.06952 25.1202 1.72016ZM26.7379 33.2726C26.9545 34.4168 27.4965 35.4786 28.3062 36.3152C29.3786 37.4229 30.8329 38.0452 32.3493 38.0452C35.5074 38.0452 38.0673 35.4006 38.0673 32.1383V29.6546C38.0673 25.4499 35.3178 23.6425 35.3178 23.6425C34.6123 23.201 34.3866 22.251 34.8139 21.5222C35.2414 20.7933 36.161 20.5601 36.8665 21.0018C36.8665 21.0018 40.3299 23.0973 40.9587 28.0755C43.1614 27.9174 45.6783 27.1825 46.7504 24.946C47.6162 23.1401 47.4655 20.4912 45.8008 16.6216C39.491 1.95507 30.4212 1.42319 26.0378 4.79534C25.519 5.21237 24.7744 5.2383 24.2235 4.81146C19.8482 1.42152 10.7593 1.93155 4.43952 16.6216C2.77479 20.4912 2.62415 23.1401 3.48996 24.946C4.56774 27.1944 7.10564 27.9252 9.31715 28.0779C9.83398 23.9728 12.1942 21.2884 12.1942 21.2884C12.7465 20.6555 13.6923 20.6049 14.3049 21.1753C14.9175 21.746 14.9664 22.723 14.4141 23.3559C14.4141 23.3559 12.2067 25.911 12.2067 29.6546V32.1383C12.2069 35.4006 14.7668 38.0452 17.9247 38.0452C19.4413 38.0452 20.8957 37.4229 21.9679 36.3152C22.7777 35.4786 23.3195 34.4168 23.5363 33.2726L21.5988 30.8709C21.1114 30.2664 21.0063 29.4253 21.3293 28.713C21.6523 28.0004 22.345 27.5454 23.1064 27.5452C24.4154 27.5452 25.8588 27.5452 27.1676 27.5452C27.9292 27.5454 28.622 28.0004 28.9449 28.713C29.2679 29.4253 29.1628 30.2664 28.6752 30.8709L26.7379 33.2726ZM78.7611 17.5255C78.4003 16.9265 77.9825 16.3505 77.5137 15.8014C77.2458 15.4876 77.1127 15.075 77.1448 14.6578C77.1448 14.6578 77.204 13.8904 77.204 13.8816C77.2002 13.3371 77.1255 9.67627 75.7945 6.80377C74.9236 7.43941 73.7173 8.57451 72.8714 10.3921C72.5281 11.1298 71.6874 11.4626 70.9548 11.1506C70.1525 10.809 69.3138 10.5096 68.4446 10.2565C68.3752 10.6874 68.3113 11.3368 68.3583 12.1355C68.4082 12.986 67.7803 13.7183 66.9572 13.77C66.1339 13.8215 65.4248 13.1729 65.375 12.3226C65.307 11.1649 65.3694 10.2756 65.4912 9.59735C64.8883 9.50175 64.2749 9.42728 63.6527 9.37522L63.6815 13.2218C63.688 14.0739 63.0236 14.771 62.1988 14.7777C61.3739 14.7843 60.6993 14.0979 60.6928 13.2457L60.6632 9.29797C59.931 9.32112 59.2092 9.37485 58.5005 9.45748C58.624 10.3028 58.6924 11.4396 58.6257 12.9558C58.5882 13.8071 57.8888 14.4666 57.0649 14.4281C56.2409 14.3894 55.6023 13.6668 55.6398 12.8156C55.695 11.561 55.6219 10.6191 55.534 9.98826C54.4151 10.261 53.3415 10.6089 52.324 11.0241C51.6022 11.3184 50.7823 10.9933 50.4369 10.2754C49.5956 8.52764 48.4237 7.42811 47.5719 6.80563C46.9381 8.1888 46.6006 9.75612 46.4076 11.0587C47.1418 12.355 47.8527 13.7884 48.532 15.3675C50.7145 20.4402 50.5637 23.9491 49.4288 26.3162C48.5727 28.102 47.1104 29.3052 45.4448 30.0702C48.8008 34.0296 54.7494 36.6033 61.4874 36.6033C67.7821 36.6033 73.3807 34.3512 76.8409 30.8218C78.4389 29.192 79.571 27.2892 80.0563 25.2206C79.3967 25.232 78.6819 25.3112 77.926 25.4912C77.1222 25.6826 76.3194 25.1639 76.1341 24.3335C75.9489 23.5032 76.451 22.6738 77.2547 22.4824C78.3366 22.2247 79.3551 22.1265 80.2872 22.1311C80.2385 21.5386 80.137 20.9567 79.9865 20.3884C79.189 20.5518 78.346 20.8526 77.5345 21.3715C76.8331 21.8201 75.9114 21.5961 75.4772 20.8715C75.0431 20.147 75.26 19.1947 75.9614 18.7462C76.8848 18.1556 77.8379 17.7695 78.7611 17.5255ZM60.8372 22.125L60.2217 21.4981C59.9825 21.2545 59.931 20.9152 60.0894 20.6279C60.2479 20.3407 60.5879 20.1571 60.9616 20.1571C61.6038 20.1571 62.3122 20.1571 62.9543 20.1571C63.3281 20.1571 63.6681 20.3407 63.8264 20.6279C63.985 20.9152 63.9335 21.2545 63.6943 21.4981L63.0788 22.125V23.7616L64.5407 26.7075C64.8228 27.2761 64.6051 27.9745 64.0546 28.2661C63.5042 28.5575 62.8281 28.3326 62.5458 27.7638L61.8728 26.4074L61.0432 27.8324C60.7244 28.38 60.0352 28.5573 59.5051 28.2279C58.975 27.8985 58.8034 27.1866 59.1222 26.6389L60.8372 23.6929V22.125ZM67.7371 17.8567C66.1296 17.8567 64.8246 19.2049 64.8246 20.8656C64.8246 22.5263 66.1296 23.8746 67.7371 23.8746C69.3446 23.8746 70.6498 22.5263 70.6498 20.8656C70.6498 19.2049 69.3446 17.8567 67.7371 17.8567ZM55.9791 17.8567C54.3716 17.8567 53.0666 19.2049 53.0666 20.8656C53.0666 22.5263 54.3716 23.8746 55.9791 23.8746C57.5866 23.8746 58.8918 22.5263 58.8918 20.8656C58.8918 19.2049 57.5866 17.8567 55.9791 17.8567ZM67.7371 20.1725C68.1074 20.1725 68.4082 20.483 68.4082 20.8656C68.4082 21.2482 68.1074 21.5588 67.7371 21.5588C67.3668 21.5588 67.0662 21.2482 67.0662 20.8656C67.0662 20.483 67.3668 20.1725 67.7371 20.1725ZM55.9791 20.1725C56.3494 20.1725 56.6501 20.483 56.6501 20.8656C56.6501 21.2482 56.3494 21.5588 55.9791 21.5588C55.6088 21.5588 55.3082 21.2482 55.3082 20.8656C55.3082 20.483 55.6088 20.1725 55.9791 20.1725ZM18.9478 15.3298C19.9664 15.3298 20.7933 16.1842 20.7933 17.2365C20.7933 18.2886 19.9664 19.143 18.9478 19.143C17.9292 19.143 17.1023 18.2886 17.1023 17.2365C17.1023 16.1842 17.9292 15.3298 18.9478 15.3298ZM30.7212 15.3029C31.7398 15.3029 32.5667 16.1573 32.5667 17.2094C32.5667 18.2617 31.7398 19.1162 30.7212 19.1162C29.7026 19.1162 28.8757 18.2617 28.8757 17.2094C28.8757 16.1573 29.7026 15.3029 30.7212 15.3029Z" fill="#4492E0"/>
</svg>
