<?xml version="1.0" encoding="UTF-8"?>
<svg width="1200pt" height="1200pt" version="1.1" viewBox="0 0 1200 1200" xmlns="http://www.w3.org/2000/svg">
 <path d="m894.3 546.96c-155.62 0-283.02 126.53-283.02 283.02 0 155.96 126.88 283.02 283.02 283.02 112.26 0 210.64-65.617 256.3-162.86 5.3164-11.32 0.44922-24.801-10.871-30.117-11.32-5.3203-24.805-0.44922-30.121 10.871-11.754 25.031-27.656 47.371-46.617 66.402-97.477-86.438-238.4-87.988-337.55-0.14453-91.773-92.691-91.922-241.51 0-334.35 98.094 86.832 239.03 87.324 337.57-0.14453 49.586 49.996 74.395 118.74 68.051 188.71-1.1289 12.453 8.0508 23.465 20.5 24.594 12.449 1.168 23.465-8.0508 24.594-20.5 0.76563-8.4531 1.1562-17.027 1.1562-25.484 0.003907-156.02-126.95-283.01-283.02-283.01zm133.37 479.6c-81.031 54.918-186.5 54.848-266.99-0.054688 79.566-66.348 188.59-65.277 266.99 0.054688zm-266.99-393.11c80.207-54.703 186.2-55.184 267.08-0.10937-79.508 66.43-188.6 65.457-267.08 0.10937z"/>
 <path d="m467.73 744.05c-9.4297-8.2109-23.73-7.2266-31.941 2.2109l-67.246 77.23c-6.7852 7.7891-7.4336 19.188-1.5781 27.695 28.246 41.074 25.086 96.051-7.6836 133.7-39.605 45.484-108.82 50.273-154.31 10.668-14.457-12.582-25.383-28.816-31.598-46.953-2.625-7.6641-9.1445-13.344-17.098-14.887-18.812-3.6562-36.391-12.238-50.836-24.828-45.48-39.586-50.266-108.81-10.676-154.3 32.793-37.648 86.824-48.336 131.39-26.008 9.2344 4.6289 20.434 2.4141 27.219-5.375l209.48-240.59c8.2109-9.4297 7.2188-23.73-2.2109-31.941-9.4297-8.2109-23.73-7.2227-31.941 2.2109l-198.65 228.15c-59.465-21.664-127.02-4.8711-169.44 43.824-55.988 64.336-49.219 162.22 15.086 218.19 17.215 14.996 37.582 25.984 59.484 32.168 24.023 54.793 78.523 92.457 141.5 92.449 43.211-0.003906 86.211-17.965 116.75-53.035 42.387-48.691 49.727-117.91 20.086-173.82l56.414-64.789c8.2109-9.4453 7.2227-23.746-2.207-31.957z"/>
 <path d="m902.64 429.8c55.988-64.328 49.227-162.21-15.074-218.2-17.23-14.996-37.598-25.98-59.496-32.16-9.1328-20.836-22.809-39.5-40.035-54.508-64.316-55.977-162.21-49.207-218.21 15.094-42.391 48.699-49.738 117.91-20.094 173.83l-61.578 70.746c-8.2109 9.4336-7.2188 23.734 2.2148 31.941 9.4336 8.207 23.73 7.2188 31.941-2.2148l72.406-83.184c6.7812-7.7891 7.4297-19.184 1.5742-27.695-28.246-41.07-25.086-96.047 7.6797-133.69 39.617-45.477 108.85-50.258 154.32-10.684 14.449 12.594 25.371 28.832 31.582 46.965 2.625 7.6641 9.1445 13.344 17.098 14.887 18.812 3.6562 36.398 12.242 50.855 24.828 45.469 39.59 50.246 108.82 10.652 154.3-32.789 37.645-86.809 48.344-131.36 26.012-9.2344-4.6289-20.434-2.418-27.223 5.3711l-214.66 246.52c-8.2109 9.4297-7.2227 23.734 2.207 31.945 9.4062 8.1914 23.715 7.2422 31.945-2.207l203.83-234.08c59.465 21.676 127.01 4.875 169.43-43.824z"/>
</svg>
