<?xml version="1.0" encoding="UTF-8"?>
<svg width="1200pt" height="1200pt" version="1.1" viewBox="0 0 1200 1200" xmlns="http://www.w3.org/2000/svg">
 <path d="m804.56 790.31c-3.1562-14.539-10.562-27.809-21.281-38.125-10.715-10.316-24.258-17.215-38.906-19.812-18.508-3.4922-37.648 0.28906-53.438 10.559-15.785 10.266-27.004 26.23-31.312 44.566h-118.31c-5.3164-21.074-19.512-38.809-38.914-48.605-19.402-9.7969-42.102-10.695-62.215-2.4648-20.117 8.2344-35.672 24.789-42.637 45.379s-4.6562 43.188 6.3281 61.941c-12.238 21.168-13.391 46.973-3.0898 69.145 10.305 22.176 30.77 37.934 54.84 42.23 4.3359 0.73828 8.7266 1.1133 13.125 1.125 16.559 0.17578 32.68-5.3047 45.703-15.531s22.168-24.59 25.922-40.719h118.31c5.3164 21.074 19.512 38.809 38.914 48.605 19.402 9.7969 42.102 10.695 62.215 2.4648 20.117-8.2344 35.672-24.789 42.637-45.379s4.6562-43.188-6.3281-61.941c9.3633-16.141 12.371-35.195 8.4375-53.438zm-45.562 66c8.5781 8.6719 12.238 21.062 9.75 33-2.4023 11.07-9.6758 20.461-19.793 25.551-10.121 5.0898-21.996 5.332-32.316 0.66406-10.32-4.6719-17.973-13.754-20.828-24.715-2.0391-8.0625-6.6992-15.223-13.25-20.348s-14.621-7.9258-22.938-7.9648h-119.25c-8.1328 0.23047-15.965 3.0977-22.324 8.1719s-10.895 12.078-12.926 19.953c-2.8281 10.965-10.461 20.066-20.766 24.762-10.305 4.6953-22.18 4.4805-32.312-0.58203-10.129-5.0625-17.43-14.43-19.859-25.492-2.7305-11.781 0.57031-24.148 8.8125-33 3.1094-3.4453 4.832-7.9219 4.832-12.562s-1.7227-9.1172-4.832-12.562c-8.2422-8.8516-11.543-21.219-8.8125-33 1.4766-7.3164 5.1016-14.027 10.41-19.27 5.3125-5.2461 12.066-8.7852 19.402-10.168h6.75c8.4922-0.28125 16.824 2.332 23.637 7.4062 6.8125 5.0781 11.703 12.316 13.863 20.531 1.9375 7.7344 6.293 14.648 12.43 19.738 6.1367 5.0938 13.734 8.0977 21.695 8.5742h119.25c8.1328-0.23047 15.965-3.0977 22.324-8.1719s10.895-12.078 12.926-19.953c2.8281-10.965 10.461-20.066 20.766-24.762 10.305-4.6953 22.18-4.4805 32.312 0.58203 10.129 5.0625 17.43 14.43 19.859 25.492 2.7305 11.781-0.57031 24.148-8.8125 33-3.1094 3.4453-4.832 7.9219-4.832 12.562s1.7227 9.1172 4.832 12.562z"/>
 <path d="m575.81 613.31c6.3789-6.4805 15.094-10.133 24.188-10.133s17.809 3.6523 24.188 10.133c3.5195 3.5508 8.3125 5.5469 13.312 5.5469s9.793-1.9961 13.312-5.5469c3.5508-3.5195 5.5469-8.3125 5.5469-13.312s-1.9961-9.793-5.5469-13.312c-13.496-13.441-31.766-20.988-50.812-20.988s-37.316 7.5469-50.812 20.988c-4.7578 4.7578-6.6133 11.688-4.8711 18.184 1.7383 6.5 6.8125 11.574 13.312 13.312 6.4961 1.7422 13.426-0.11328 18.184-4.8711z"/>
 <path d="m1099.3 366.75c-15.969-10.316-36.074-11.871-53.438-4.125l-2.25 0.9375-51-107.62c-8.4492-23.477-23.41-44.059-43.137-59.332-19.727-15.277-43.395-24.613-68.238-26.918h-566.06c-5.0781 0.09375-10.148 0.47266-15.188 1.125-24.32 2.793-47.375 12.332-66.562 27.543-19.184 15.207-33.73 35.477-42 58.52l-6.5625 18.75c-2.2109 6.332-0.875 13.359 3.5 18.438 4.3789 5.082 11.133 7.4375 17.719 6.1875 6.5898-1.25 12.008-5.918 14.219-12.25l6.5625-18.75c5.5703-15.496 15.121-29.25 27.695-39.883 12.57-10.633 27.723-17.766 43.93-20.68 42.418 24.293 78.262 58.586 104.4 99.891 26.145 41.305 41.797 88.375 45.598 137.11-49.57 8.707-97.875 23.508-143.81 44.062l-10.875-28.312c-10.738-27.879-32.121-50.344-59.438-62.438l-45.75-20.25 5.4375-15.562c2.2109-6.332 0.875-13.359-3.5-18.438-4.3789-5.082-11.133-7.4375-17.719-6.1875-6.5898 1.25-12.008 5.918-14.219 12.25l-4.5 12.562c-17.277-7.6914-37.266-6.1875-53.195 4.0039-15.93 10.195-25.672 27.711-25.93 46.621v411c0 54.699 21.73 107.16 60.41 145.84 38.68 38.68 91.141 60.41 145.84 60.41h637.5c54.699 0 107.16-21.73 145.84-60.41 38.68-38.68 60.41-91.141 60.41-145.84v-411c0.007812-19.09-9.6641-36.879-25.688-47.25zm-737.44-160.5h457.5c-34.816 28.301-63.68 63.219-84.918 102.74-21.242 39.523-34.438 82.859-38.832 127.51-31.758-3.4766-63.68-5.2305-95.625-5.25-38.195 0.03125-76.348 2.6641-114.19 7.875-4.0273-45.133-17.07-89-38.359-129-21.289-40-50.391-75.32-85.578-103.87zm238.12 262.5c61.617-0.3125 123.05 6.7383 183 21 6.5312 1.6094 13.426-0.39062 18.082-5.2422 4.6562-4.8555 6.375-11.824 4.5-18.281-1.875-6.4609-7.0508-11.43-13.582-13.039-18.75-4.6875-39-8.25-59.062-11.438 4.2734-48.211 20.145-94.672 46.266-135.42 26.121-40.75 61.711-74.57 103.73-98.582 17.027 2.5195 33.035 9.6758 46.266 20.691 13.227 11.012 23.172 25.457 28.734 41.746l51.375 108.56-44.062 18.75c-27.316 12.094-48.699 34.559-59.438 62.438l-10.688 28.125c-8.5-4-17.125-7.75-25.875-11.25-6.2305-2.4805-13.309-1.4453-18.57 2.7109-5.2617 4.1562-7.9062 10.805-6.9375 17.438 0.96875 6.6328 5.4023 12.246 11.633 14.727 9.1875 3.5625 17.812 7.5 26.25 11.438l-9.375 24.188c-12.242 31.859-33.797 59.293-61.859 78.727-28.059 19.43-61.324 29.957-95.453 30.211h-229.88c-34.074-0.15625-67.316-10.559-95.402-29.852-28.09-19.293-49.723-46.586-62.098-78.336l-8.8125-23.062c88.715-38.438 184.57-57.609 281.25-56.25zm487.5 356.25c0 44.754-17.777 87.676-49.426 119.32-31.648 31.648-74.57 49.426-119.32 49.426h-637.5c-44.754 0-87.676-17.777-119.32-49.426-31.648-31.648-49.426-74.57-49.426-119.32v-411c0.011719-6.375 3.2578-12.309 8.625-15.75 3.0195-1.9492 6.5312-2.9922 10.125-3 2.6406-0.046875 5.2578 0.46484 7.6875 1.5l80.438 35.812c18.188 8.0781 32.418 23.051 39.562 41.625l33.562 88.312c15.254 38.652 41.766 71.828 76.102 95.23 34.336 23.402 74.91 35.953 116.46 36.02h229.88c41.551-0.066406 82.125-12.617 116.46-36.02 34.336-23.402 60.848-56.578 76.102-95.23l33.562-87.375c7.1445-18.574 21.375-33.547 39.562-41.625l80.438-35.812c5.8242-2.6172 12.586-2.0938 17.934 1.3984 5.3516 3.4922 8.5547 9.4648 8.5039 15.852z"/>
</svg>
