<?xml version="1.0" encoding="UTF-8"?>
<svg width="1200pt" height="1200pt" version="1.1" viewBox="0 0 1200 1200" xmlns="http://www.w3.org/2000/svg">
 <path d="m455.62 357.38c-24.07 4.2969-44.535 20.055-54.84 42.23-10.301 22.172-9.1484 47.977 3.0898 69.145-12.238 21.168-13.391 46.973-3.0898 69.145 10.305 22.176 30.77 37.934 54.84 42.23 4.3359 0.73828 8.7266 1.1133 13.125 1.125 16.559 0.17578 32.68-5.3047 45.703-15.531s22.168-24.59 25.922-40.719h118.31c5.3164 21.074 19.512 38.809 38.914 48.605 19.402 9.7969 42.102 10.695 62.215 2.4648 20.117-8.2344 35.672-24.789 42.637-45.379s4.6562-43.188-6.3281-61.941c12.238-21.168 13.391-46.973 3.0898-69.145-10.305-22.176-30.77-37.934-54.84-42.23-18.504-3.4453-37.621 0.35547-53.398 10.617-15.773 10.262-27 26.199-31.352 44.508h-118.31c-4.7148-18.289-16.16-34.129-32.047-44.348-15.883-10.219-35.039-14.066-53.641-10.777zm239.25 64.5c2.8281-10.965 10.461-20.066 20.766-24.762 10.305-4.6953 22.18-4.4805 32.312 0.58203 10.129 5.0625 17.43 14.43 19.859 25.492 2.7305 11.781-0.57031 24.148-8.8125 33-3.1094 3.4453-4.832 7.9219-4.832 12.562s1.7227 9.1172 4.832 12.562c8.5781 8.6719 12.238 21.062 9.75 33-2.4023 11.07-9.6758 20.461-19.793 25.551-10.121 5.0898-21.996 5.332-32.316 0.66406-10.32-4.6719-17.973-13.754-20.828-24.715-2.0391-8.0625-6.6992-15.223-13.25-20.348s-14.621-7.9258-22.938-7.9648h-119.25c-8.1328 0.23047-15.965 3.0977-22.324 8.1719s-10.895 12.078-12.926 19.953c-2.8281 10.965-10.461 20.066-20.766 24.762-10.305 4.6953-22.18 4.4805-32.312-0.58203-10.129-5.0625-17.43-14.43-19.859-25.492-2.7305-11.781 0.57031-24.148 8.8125-33 3.1094-3.4453 4.832-7.9219 4.832-12.562s-1.7227-9.1172-4.832-12.562c-8.2422-8.8516-11.543-21.219-8.8125-33 1.4766-7.3164 5.1016-14.027 10.41-19.27 5.3125-5.2461 12.066-8.7852 19.402-10.168h6.75c8.4922-0.28125 16.824 2.332 23.637 7.4062 6.8125 5.0781 11.703 12.316 13.863 20.531 1.9375 7.7344 6.293 14.648 12.43 19.738 6.1367 5.0938 13.734 8.0977 21.695 8.5742h119.25c8.1328-0.23047 15.965-3.0977 22.324-8.1719s10.895-12.078 12.926-19.953z"/>
 <path d="m1116.6 415.69-506.25-337.5c-3.0625-2.0156-6.6484-3.0898-10.312-3.0898s-7.25 1.0742-10.312 3.0898l-393.75 262.5c-4.8945 3.9414-7.4883 10.078-6.9062 16.336 0.57812 6.2578 4.2578 11.809 9.7969 14.785 5.5352 2.9727 12.195 2.9766 17.734 0.003906l383.44-255.56 487.5 325.12v48.562l-477.19-318.75c-3.0625-2.0156-6.6484-3.0898-10.312-3.0898s-7.25 1.0742-10.312 3.0898l-477.19 318.75v-48.562l29.062-18.75c5.4727-3.7344 8.5664-10.082 8.1406-16.691-0.42969-6.6094-4.3125-12.508-10.215-15.508-5.9062-3.0039-12.957-2.6641-18.551 0.88672l-37.5 25.125c-5.0234 3.3008-8.1602 8.8086-8.4375 14.812v93.75c0.007812 3.3906 0.9375 6.7188 2.6875 9.625 1.75 2.9023 4.2578 5.2812 7.25 6.875 2.9336 1.5039 6.2109 2.2109 9.5 2.0469 3.293-0.16406 6.4844-1.1953 9.25-2.9844l66.938-44.25 25.688 441.19h-35.812c-12.539 0-24.715 4.1875-34.602 11.898-9.8828 7.7109-16.91 18.504-19.961 30.664l-30.938 121.69c-1.4219 5.6094-0.17578 11.559 3.375 16.125 3.6992 4.6875 9.4062 7.332 15.375 7.125h881.25c4.7852 0.007812 9.3906-1.8125 12.875-5.0898 3.4883-3.2734 5.5898-7.7617 5.875-12.535l35.625-611.06 66.562 44.25c3.7773 2.4883 8.3281 3.5273 12.812 2.9219 4.4805-0.60156 8.5938-2.8047 11.582-6.2031 2.9883-3.3945 4.6445-7.7578 4.668-12.281v-93.75c-0.03125-6.2734-3.1992-12.113-8.4375-15.562zm-998.81 671.81 24.562-98.25c1.0273-4.1602 3.4453-7.8438 6.8594-10.438 3.4102-2.5898 7.6094-3.9375 11.891-3.8125h278.44c4.2812-0.125 8.4805 1.2227 11.891 3.8125 3.4141 2.5938 5.832 6.2773 6.8594 10.438l24 98.25zm839.62 0h-132.38v-37.5c0-6.6992-3.5742-12.887-9.375-16.238-5.8008-3.3477-12.949-3.3477-18.75 0-5.8008 3.3516-9.375 9.5391-9.375 16.238v37.5h-266.62l-26.812-107.44c-3.0508-12.16-10.078-22.953-19.961-30.664-9.8867-7.7109-22.062-11.898-34.602-11.898h-27v-112.5c0-49.727 19.754-97.418 54.918-132.58 35.164-35.164 82.855-54.918 132.58-54.918s97.418 19.754 132.58 54.918c35.164 35.164 54.918 82.855 54.918 132.58v150c0 6.6992 3.5742 12.887 9.375 16.238 5.8008 3.3477 12.949 3.3477 18.75 0 5.8008-3.3516 9.375-9.5391 9.375-16.238v-150c0-59.672-23.707-116.9-65.902-159.1-42.195-42.195-99.426-65.902-159.1-65.902s-116.9 23.707-159.1 65.902c-42.195 42.195-65.902 99.426-65.902 159.1v112.5h-141l-27.75-465.38 393.75-262.5 393.75 262.5z"/>
</svg>
