<?xml version="1.0" encoding="UTF-8"?>
<svg width="1200pt" height="1200pt" version="1.1" viewBox="0 0 1200 1200" xmlns="http://www.w3.org/2000/svg">
 <path d="m641.81 783.38c15.566-25.699 18.668-57.062 8.4375-85.312-9.7539-26.453-30.895-47.109-57.562-56.25-7.3984-2.1719-13.32-7.7461-15.938-15-8.1523-25.359-26.707-46.051-51.031-56.91-24.32-10.859-52.117-10.859-76.438 0-24.324 10.859-42.879 31.551-51.031 56.91-2.5781 7.2109-8.4219 12.777-15.75 15-26.742 9.0938-47.957 29.758-57.75 56.25-10.223 28.188-7.1211 59.492 8.4375 85.125 6.457 11.391 15.844 20.84 27.188 27.375 15.828 9.25 33.793 14.227 52.125 14.438 15.238 0.046875 30.25-3.6914 43.688-10.875 19.605-10.301 43.02-10.301 62.625 0 30.348 15.719 66.715 14.367 95.812-3.5625 11.27-6.5469 20.641-15.918 27.188-27.188zm-45.938-5.25c-17.977 11.422-40.652 12.492-59.625 2.8125-30.496-16.133-67.004-16.133-97.5 0-18.973 9.6797-41.648 8.6094-59.625-2.8125-5.625-3.1523-10.238-7.832-13.312-13.5-9.9023-15.945-12.105-35.5-6-53.25 5.8164-15.598 18.242-27.82 33.938-33.375 18.652-6.0547 33.332-20.594 39.562-39.188 4.9648-15.102 16.086-27.398 30.617-33.848 14.531-6.4492 31.109-6.4492 45.641 0 14.531 6.4492 25.652 18.746 30.617 33.848 6.5352 18.941 21.836 33.543 41.062 39.188 15.98 5.3672 28.711 17.613 34.688 33.375 6.1055 17.75 3.9023 37.305-6 53.25-3.2734 5.7734-8.1602 10.465-14.062 13.5z"/>
 <path d="m421.88 375c-37.5 0-65.625 37.5-65.625 84.375s28.875 84.375 65.625 84.375 65.625-37.5 65.625-84.375-28.875-84.375-65.625-84.375zm0 131.25c-13.312 0-28.125-18.75-28.125-46.875s14.812-46.875 28.125-46.875 28.125 18.75 28.125 46.875-14.812 46.875-28.125 46.875z"/>
 <path d="m262.5 562.5c0 42 26.812 75 60.938 75s60.938-33 60.938-75-26.812-75-60.938-75-60.938 33-60.938 75zm84.375 0c0 22.125-12.375 37.5-23.438 37.5s-23.438-15.375-23.438-37.5 12.375-37.5 23.438-37.5 23.438 15.375 23.438 37.5z"/>
 <path d="m712.5 562.5c0-42-26.812-75-60.938-75s-60.938 33-60.938 75 26.812 75 60.938 75 60.938-33 60.938-75zm-60.938 37.5c-11.062 0-23.438-15.375-23.438-37.5s12.375-37.5 23.438-37.5 23.438 15.375 23.438 37.5-12.375 37.5-23.438 37.5z"/>
 <path d="m553.12 375c-37.5 0-65.625 37.5-65.625 84.375s28.875 84.375 65.625 84.375 65.625-37.5 65.625-84.375-28.875-84.375-65.625-84.375zm0 131.25c-13.312 0-28.125-18.75-28.125-46.875s14.812-46.875 28.125-46.875 28.125 18.75 28.125 46.875-14.812 46.875-28.125 46.875z"/>
 <path d="m618.75 918.75h37.5c6.6992 0 12.887-3.5742 16.238-9.375 3.3477-5.8008 3.3477-12.949 0-18.75-3.3516-5.8008-9.5391-9.375-16.238-9.375h-37.5c-6.6992 0-12.887 3.5742-16.238 9.375-3.3477 5.8008-3.3477 12.949 0 18.75 3.3516 5.8008 9.5391 9.375 16.238 9.375z"/>
 <path d="m562.5 900c0-4.9727-1.9766-9.7422-5.4922-13.258-3.5156-3.5156-8.2852-5.4922-13.258-5.4922h-225c-6.6992 0-12.887 3.5742-16.238 9.375-3.3477 5.8008-3.3477 12.949 0 18.75 3.3516 5.8008 9.5391 9.375 16.238 9.375h225c4.9727 0 9.7422-1.9766 13.258-5.4922 3.5156-3.5156 5.4922-8.2852 5.4922-13.258z"/>
 <path d="m393.75 993.75h187.5c6.6992 0 12.887-3.5742 16.238-9.375 3.3477-5.8008 3.3477-12.949 0-18.75-3.3516-5.8008-9.5391-9.375-16.238-9.375h-187.5c-6.6992 0-12.887 3.5742-16.238 9.375-3.3477 5.8008-3.3477 12.949 0 18.75 3.3516 5.8008 9.5391 9.375 16.238 9.375z"/>
 <path d="m986.62 993.75 3.9375-3.1875c14.082-14.066 21.996-33.156 21.996-53.062s-7.9141-38.996-21.996-53.062l-159-159c-11.902-11.672-27.465-18.891-44.062-20.438v-386.25c0-14.918-5.9258-29.227-16.477-39.773-10.547-10.551-24.855-16.477-39.773-16.477h-131.25v-37.5h37.5c4.9727 0 9.7422-1.9766 13.258-5.4922 3.5156-3.5156 5.4922-8.2852 5.4922-13.258v-112.5c0-4.9727-1.9766-9.7422-5.4922-13.258-3.5156-3.5156-8.2852-5.4922-13.258-5.4922h-300c-4.9727 0-9.7422 1.9766-13.258 5.4922-3.5156 3.5156-5.4922 8.2852-5.4922 13.258v112.5c0 4.9727 1.9766 9.7422 5.4922 13.258 3.5156 3.5156 8.2852 5.4922 13.258 5.4922h37.5v37.5h-131.25c-14.918 0-29.227 5.9258-39.773 16.477-10.551 10.547-16.477 24.855-16.477 39.773v18.75c0 6.6992 3.5742 12.887 9.375 16.238 5.8008 3.3477 12.949 3.3477 18.75 0 5.8008-3.3516 9.375-9.5391 9.375-16.238v-18.75c0-4.9727 1.9766-9.7422 5.4922-13.258 3.5156-3.5156 8.2852-5.4922 13.258-5.4922h487.5c4.9727 0 9.7422 1.9766 13.258 5.4922 3.5156 3.5156 5.4922 8.2852 5.4922 13.258v390.56c-9.2031 3.6445-17.559 9.1328-24.562 16.125-14.027 14.059-21.902 33.109-21.902 52.969s7.875 38.91 21.902 52.969l24.562 24.75v118.88h-37.5c-19.891 0-38.969 7.9023-53.031 21.969-14.066 14.062-21.969 33.141-21.969 53.031 0.054688 13.219 3.6836 26.176 10.5 37.5h-404.25c-4.9727 0-9.7422-1.9766-13.258-5.4922-3.5156-3.5156-5.4922-8.2852-5.4922-13.258v-656.25c0-6.6992-3.5742-12.887-9.375-16.238-5.8008-3.3477-12.949-3.3477-18.75 0-5.8008 3.3516-9.375 9.5391-9.375 16.238v656.25c0 14.918 5.9258 29.227 16.477 39.773 10.547 10.551 24.855 16.477 39.773 16.477h693.75c20.379-0.12891 39.828-8.5469 53.871-23.316 14.043-14.77 21.469-34.617 20.574-54.977-0.89453-20.359-10.035-39.477-25.32-52.957zm-630.38-881.25h262.5v75h-262.5zm56.25 150v-37.5h150v37.5zm562.5 675c-0.042969 9.9297-4.0195 19.438-11.062 26.438-7.0273 6.9844-16.531 10.906-26.438 10.906s-19.41-3.9219-26.438-10.906l-66.375-66.188 53.062-53.062 66.188 66.375c7.043 7 11.02 16.508 11.062 26.438zm-223.12-185.62c7.0352-7.043 16.578-11 26.531-11s19.496 3.957 26.531 11l66.188 66.375-52.875 52.875-36.188-36-30.188-30c-7.043-7.0352-11-16.578-11-26.531s3.957-19.496 11-26.531zm35.625 141.75 17.438 17.25 63.938 64.125h-81.375zm-112.5 156.38c0-9.9453 3.9492-19.484 10.984-26.516 7.0312-7.0352 16.57-10.984 26.516-10.984h93.75v75h-93.75c-9.9453 0-19.484-3.9492-26.516-10.984-7.0352-7.0312-10.984-16.57-10.984-26.516zm262.5 37.5h-93.75v-75h93.75c13.398 0 25.777 7.1484 32.477 18.75 6.6992 11.602 6.6992 25.898 0 37.5-6.6992 11.602-19.078 18.75-32.477 18.75z"/>
</svg>
