<?xml version="1.0" encoding="UTF-8"?>
<svg width="1200pt" height="1200pt" version="1.1" viewBox="0 0 1200 1200" xmlns="http://www.w3.org/2000/svg">
 <path d="m150 975c0 19.891 7.9023 38.969 21.969 53.031 14.062 14.066 33.141 21.969 53.031 21.969s38.969-7.9023 53.031-21.969c14.066-14.062 21.969-33.141 21.969-53.031s-7.9023-38.969-21.969-53.031c-14.062-14.066-33.141-21.969-53.031-21.969s-38.969 7.9023-53.031 21.969c-14.066 14.062-21.969 33.141-21.969 53.031zm112.5 0c0 9.9453-3.9492 19.484-10.984 26.516-7.0312 7.0352-16.57 10.984-26.516 10.984s-19.484-3.9492-26.516-10.984c-7.0352-7.0312-10.984-16.57-10.984-26.516s3.9492-19.484 10.984-26.516c7.0312-7.0352 16.57-10.984 26.516-10.984s19.484 3.9492 26.516 10.984c7.0352 7.0312 10.984 16.57 10.984 26.516z"/>
 <path d="m562.5 900c-19.891 0-38.969 7.9023-53.031 21.969-14.066 14.062-21.969 33.141-21.969 53.031s7.9023 38.969 21.969 53.031c14.062 14.066 33.141 21.969 53.031 21.969s38.969-7.9023 53.031-21.969c14.066-14.062 21.969-33.141 21.969-53.031s-7.9023-38.969-21.969-53.031c-14.062-14.066-33.141-21.969-53.031-21.969zm0 112.5c-9.9453 0-19.484-3.9492-26.516-10.984-7.0352-7.0312-10.984-16.57-10.984-26.516s3.9492-19.484 10.984-26.516c7.0312-7.0352 16.57-10.984 26.516-10.984s19.484 3.9492 26.516 10.984c7.0352 7.0312 10.984 16.57 10.984 26.516s-3.9492 19.484-10.984 26.516c-7.0312 7.0352-16.57 10.984-26.516 10.984z"/>
 <path d="m806.25 1012.5c-32.457 0.14844-64.734-4.8516-95.625-14.812 1.2695-7.4961 1.8945-15.086 1.875-22.688-0.011719-33.742-11.402-66.492-32.324-92.961-20.926-26.469-50.164-45.113-82.988-52.914l-122.25-271.5 161.44-457.69c1.043-3.2227 1.1914-6.668 0.43359-9.9688-0.76172-3.3047-2.4023-6.3359-4.7461-8.7812-2.4062-2.4102-5.4219-4.1211-8.7227-4.9453-3.3047-0.82813-6.7695-0.73828-10.027 0.25781l-56.25 18.75c-0.84766 0.29688-1.6641 0.67188-2.4375 1.125l-37.5 18.75c-3.8164 1.9297-6.8594 5.1055-8.625 9l-114.75 253.12-114.19-253.69c-1.7656-3.8945-4.8086-7.0703-8.625-9l-37.5-18.75c-0.77344-0.45312-1.5898-0.82812-2.4375-1.125l-56.25-18.75c-3.2578-0.99609-6.7227-1.0859-10.027-0.25781-3.3008 0.82422-6.3164 2.5352-8.7227 4.9453-2.3438 2.4453-3.9844 5.4766-4.7461 8.7812-0.75781 3.3008-0.60938 6.7461 0.43359 9.9688l161.44 457.69-122.81 272.06c-45.125 10.785-82.719 41.844-101.82 84.125-19.105 42.277-17.57 91.02 4.1562 132.01 21.727 40.992 61.199 69.625 106.91 77.551 45.711 7.9219 92.52-5.75 126.78-37.039 34.258-31.289 52.109-76.668 48.352-122.91-3.7617-46.242-28.707-88.145-67.566-113.49 7.875-56.25 66.75-88.5 86.625-97.688 19.875 9.1875 78.75 41.062 86.625 97.688-35.254 21.32-60.188 56.203-68.949 96.465-8.7578 40.258-0.57422 82.348 22.637 116.39 23.211 34.039 59.402 57.035 100.08 63.59 40.676 6.5508 82.258-3.9141 114.98-28.945l153.75 28.125c1.1172 0.18359 2.2578 0.18359 3.375 0 4.3828 0.007812 8.625-1.5156 12-4.3125 4.2852-3.5703 6.7578-8.8594 6.75-14.438v-75c0-4.9727-1.9766-9.7422-5.4922-13.258-3.5156-3.5156-8.2852-5.4922-13.258-5.4922zm-266.81-867.38 30.188-15.188 18.75-6.1875-135.75 384.38-37.5-85.125zm-270.75 714c-0.058594 3.457 0.83594 6.8594 2.5898 9.8398 1.7539 2.9766 4.2969 5.4102 7.3477 7.0352 31.504 16.957 53.062 47.887 58.07 83.309 5.0117 35.426-7.125 71.117-32.691 96.145s-61.512 36.402-96.82 30.641c-35.309-5.7656-65.773-27.977-82.055-59.832-16.281-31.859-16.438-69.559-0.42578-101.55 16.012-31.992 46.289-54.461 81.547-60.52 6.2188-1.0312 11.5-5.1172 14.062-10.875l109.88-243.75 39.75 112.5c-32.438 15.562-99.375 58.875-101.25 137.06zm518.81 224.62-139.12-25.312c-5.332-0.91406-10.801 0.52344-15 3.9375-19.98 16.367-45.047 25.25-70.875 25.125-33.652 0.058594-65.562-14.953-86.977-40.914-21.414-25.961-30.082-60.145-23.625-93.172 6.457-33.027 27.363-61.43 56.977-77.414 3.0508-1.625 5.5938-4.0586 7.3477-7.0352 1.7539-2.9805 2.6484-6.3828 2.5898-9.8398-2.0625-85.875-83.25-129.75-110.06-141.94l-58.312-165-151.31-428.44 18.75 6.1875 30.188 15.188 128.62 286.12 21.562 47.812 168.75 375c2.5625 5.7578 7.8438 9.8438 14.062 10.875 26.102 4.3672 49.832 17.793 67.012 37.926 17.18 20.129 26.715 45.672 26.926 72.137 0 10.078-1.3906 20.109-4.125 29.812-1.1953 4.4531-0.70703 9.1875 1.3672 13.305 2.0742 4.1133 5.5938 7.3203 9.8828 9.0078 33.629 13.359 69.23 21.09 105.38 22.875z"/>
 <path d="m1106.2 93.75h-281.25c-24.863 0-48.711 9.8789-66.293 27.457-17.578 17.582-27.457 41.43-27.457 66.293 0 4.9727 1.9766 9.7422 5.4922 13.258 3.5156 3.5156 8.2852 5.4922 13.258 5.4922h262.5v37.5h-243.75c-6.6992 0-12.887 3.5742-16.238 9.375-3.3477 5.8008-3.3477 12.949 0 18.75 3.3516 5.8008 9.5391 9.375 16.238 9.375h243.75v37.5h-243.75c-6.6992 0-12.887 3.5742-16.238 9.375-3.3477 5.8008-3.3477 12.949 0 18.75 3.3516 5.8008 9.5391 9.375 16.238 9.375h243.75v37.5h-243.75c-6.6992 0-12.887 3.5742-16.238 9.375-3.3477 5.8008-3.3477 12.949 0 18.75 3.3516 5.8008 9.5391 9.375 16.238 9.375h243.75v37.5h-243.75c-6.6992 0-12.887 3.5742-16.238 9.375-3.3477 5.8008-3.3477 12.949 0 18.75 3.3516 5.8008 9.5391 9.375 16.238 9.375h243.75v37.5h-243.75c-6.6992 0-12.887 3.5742-16.238 9.375-3.3477 5.8008-3.3477 12.949 0 18.75 3.3516 5.8008 9.5391 9.375 16.238 9.375h243.75v37.5h-262.5c-4.9727 0-9.7422 1.9766-13.258 5.4922-3.5156 3.5156-5.4922 8.2852-5.4922 13.258 0 24.863 9.8789 48.711 27.457 66.293 17.582 17.578 41.43 27.457 66.293 27.457h150v318.75c0 26.793 14.293 51.555 37.5 64.953 23.207 13.395 51.793 13.395 75 0 23.207-13.398 37.5-38.16 37.5-64.953v-937.5c0-4.9727-1.9766-9.7422-5.4922-13.258-3.5156-3.5156-8.2852-5.4922-13.258-5.4922zm-18.75 956.25c0 13.398-7.1484 25.777-18.75 32.477-11.602 6.6992-25.898 6.6992-37.5 0-11.602-6.6992-18.75-19.078-18.75-32.477v-337.5c0-4.9727-1.9766-9.7422-5.4922-13.258-3.5156-3.5156-8.2852-5.4922-13.258-5.4922h-168.75c-11.637 0.007812-22.988-3.5977-32.492-10.312-9.5039-6.7188-16.691-16.215-20.57-27.188h259.31c4.9727 0 9.7422-1.9766 13.258-5.4922 3.5156-3.5156 5.4922-8.2852 5.4922-13.258v-450c0-4.9727-1.9766-9.7422-5.4922-13.258-3.5156-3.5156-8.2852-5.4922-13.258-5.4922h-259.31c3.8789-10.973 11.066-20.469 20.57-27.188 9.5039-6.7148 20.855-10.32 32.492-10.312h262.5z"/>
</svg>
