<?xml version="1.0" encoding="UTF-8"?>
<svg width="1200pt" height="1200pt" version="1.1" viewBox="0 0 1200 1200" xmlns="http://www.w3.org/2000/svg">
 <path d="m731.25 281.25h-75c-4.9727 0-9.7422-1.9766-13.258-5.4922-3.5156-3.5156-5.4922-8.2852-5.4922-13.258v-112.5c0-4.9727 1.9766-9.7422 5.4922-13.258 3.5156-3.5156 8.2852-5.4922 13.258-5.4922h75c4.9727 0 9.7422 1.9766 13.258 5.4922 3.5156 3.5156 5.4922 8.2852 5.4922 13.258v112.5c0 4.9727-1.9766 9.7422-5.4922 13.258-3.5156 3.5156-8.2852 5.4922-13.258 5.4922zm-56.25-37.5h37.5v-75h-37.5z"/>
 <path d="m881.25 281.25h-75c-4.9727 0-9.7422-1.9766-13.258-5.4922-3.5156-3.5156-5.4922-8.2852-5.4922-13.258v-112.5c0-4.9727 1.9766-9.7422 5.4922-13.258 3.5156-3.5156 8.2852-5.4922 13.258-5.4922h75c4.9727 0 9.7422 1.9766 13.258 5.4922 3.5156 3.5156 5.4922 8.2852 5.4922 13.258v112.5c0 4.9727-1.9766 9.7422-5.4922 13.258-3.5156 3.5156-8.2852 5.4922-13.258 5.4922zm-56.25-37.5h37.5v-75h-37.5z"/>
 <path d="m806.25 318.75h-75c-4.9727 0-9.7422-1.9766-13.258-5.4922-3.5156-3.5156-5.4922-8.2852-5.4922-13.258v-187.5c0-4.9727 1.9766-9.7422 5.4922-13.258 3.5156-3.5156 8.2852-5.4922 13.258-5.4922h75c4.9727 0 9.7422 1.9766 13.258 5.4922 3.5156 3.5156 5.4922 8.2852 5.4922 13.258v187.5c0 4.9727-1.9766 9.7422-5.4922 13.258-3.5156 3.5156-8.2852 5.4922-13.258 5.4922zm-56.25-37.5h37.5v-150h-37.5z"/>
 <path d="m468.75 337.5h-131.25c-4.9727 0-9.7422-1.9766-13.258-5.4922-3.5156-3.5156-5.4922-8.2852-5.4922-13.258v-75c0-4.9727 1.9766-9.7422 5.4922-13.258 3.5156-3.5156 8.2852-5.4922 13.258-5.4922h131.25c6.6992 0 12.887-3.5742 16.238-9.375 3.3477-5.8008 3.3477-12.949 0-18.75-3.3516-5.8008-9.5391-9.375-16.238-9.375h-262.5c-6.6992 0-12.887 3.5742-16.238 9.375-3.3477 5.8008-3.3477 12.949 0 18.75 3.3516 5.8008 9.5391 9.375 16.238 9.375h37.5c4.9727 0 9.7422 1.9766 13.258 5.4922 3.5156 3.5156 5.4922 8.2852 5.4922 13.258v75c0 4.9727-1.9766 9.7422-5.4922 13.258-3.5156 3.5156-8.2852 5.4922-13.258 5.4922h-37.5c-46.891 0-90.219-25.016-113.66-65.625-23.449-40.609-23.449-90.641 0-131.25 23.445-40.609 66.773-65.625 113.66-65.625h262.5c46.891 0 90.219 25.016 113.66 65.625 23.449 40.609 23.449 90.641 0 131.25-23.445 40.609-66.773 65.625-113.66 65.625zm-112.5-37.5h112.5c33.492 0 64.441-17.867 81.191-46.875 16.746-29.008 16.746-64.742 0-93.75-16.75-29.008-47.699-46.875-81.191-46.875h-262.5c-33.492 0-64.441 17.867-81.191 46.875-16.746 29.008-16.746 64.742 0 93.75 16.75 29.008 47.699 46.875 81.191 46.875h18.75v-37.5h-18.75c-20.098 0-38.664-10.723-48.715-28.125-10.047-17.402-10.047-38.848 0-56.25 10.051-17.402 28.617-28.125 48.715-28.125h262.5c20.098 0 38.664 10.723 48.715 28.125 10.047 17.402 10.047 38.848 0 56.25-10.051 17.402-28.617 28.125-48.715 28.125h-112.5z"/>
 <path d="m656.25 262.5h-81.562c-6.0625-0.023438-11.738-2.9766-15.238-7.9297-3.4961-4.9492-4.3867-11.285-2.3867-17.008 7.1797-20.258 7.1797-42.367 0-62.625-2-5.7227-1.1094-12.059 2.3867-17.008 3.5-4.9531 9.1758-7.9062 15.238-7.9297h81.562c4.9727 0 9.7422 1.9766 13.258 5.4922 3.5156 3.5156 5.4922 8.2852 5.4922 13.258v75c0 4.9727-1.9766 9.7422-5.4922 13.258-3.5156 3.5156-8.2852 5.4922-13.258 5.4922zm-57.562-37.5h38.812v-37.5h-38.812c1.75 12.438 1.75 25.062 0 37.5z"/>
 <path d="m431.25 412.5h-75c-4.9727 0-9.7422-1.9766-13.258-5.4922-3.5156-3.5156-5.4922-8.2852-5.4922-13.258v-75c0-4.9727 1.9766-9.7422 5.4922-13.258 3.5156-3.5156 8.2852-5.4922 13.258-5.4922h75c4.9727 0 9.7422 1.9766 13.258 5.4922 3.5156 3.5156 5.4922 8.2852 5.4922 13.258v75c0 4.9727-1.9766 9.7422-5.4922 13.258-3.5156 3.5156-8.2852 5.4922-13.258 5.4922zm-56.25-37.5h37.5v-37.5h-37.5z"/>
 <path d="m881.25 1125c-45.035-0.042969-89.199-12.43-127.69-35.812l-261.94-151.69h-191.62c-59.672 0-116.9-23.707-159.1-65.902-42.195-42.195-65.902-99.426-65.902-159.1s23.707-116.9 65.902-159.1c42.195-42.195 99.426-65.902 159.1-65.902h600c40.191 0 77.332-21.441 97.43-56.25 20.094-34.809 20.094-77.691 0-112.5-20.098-34.809-57.238-56.25-97.43-56.25h-18.75c-4.9727 0-9.7422-1.9766-13.258-5.4922-3.5156-3.5156-5.4922-8.2852-5.4922-13.258v-75c0-4.9727 1.9766-9.7422 5.4922-13.258 3.5156-3.5156 8.2852-5.4922 13.258-5.4922h18.75c59.672 0 116.9 23.707 159.1 65.902 42.195 42.195 65.902 99.426 65.902 159.1s-23.707 116.9-65.902 159.1c-42.195 42.195-99.426 65.902-159.1 65.902h-600c-40.191 0-77.332 21.441-97.43 56.25-20.094 34.809-20.094 77.691 0 112.5 20.098 34.809 57.238 56.25 97.43 56.25h190.5l262.5-153.94 3-1.5c106.5-54.938 226.5-38.625 297.94 40.5 45.457 45.676 70.973 107.5 70.973 171.94s-25.516 126.26-70.973 171.94c-45.906 45.586-108 71.137-172.69 71.062zm-581.25-600c-49.727 0-97.418 19.754-132.58 54.918-35.164 35.164-54.918 82.855-54.918 132.58s19.754 97.418 54.918 132.58c35.164 35.164 82.855 54.918 132.58 54.918h196.69c3.3672 0 6.668 0.90625 9.5625 2.625l265.69 154.31c39.766 24.277 86.512 34.551 132.79 29.18 46.277-5.3672 89.43-26.07 122.58-58.805 19.266-19.102 34.516-41.867 44.852-66.949 10.336-25.086 15.551-51.984 15.336-79.113-0.13281-54.695-21.984-107.1-60.75-145.69-60.562-66.938-162.56-79.875-254.44-32.812l-266.25 156.56c-2.8945 1.7188-6.1953 2.625-9.5625 2.625h-196.5c-53.59 0-103.11-28.59-129.9-75-26.797-46.41-26.797-103.59 0-150 26.793-46.41 76.312-75 129.9-75h600c49.727 0 97.418-19.754 132.58-54.918 35.164-35.164 54.918-82.855 54.918-132.58s-19.754-97.418-54.918-132.58c-35.164-35.164-82.855-54.918-132.58-54.918v37.5c53.59 0 103.11 28.59 129.9 75 26.797 46.41 26.797 103.59 0 150-26.793 46.41-76.312 75-129.9 75zm463.69 161.25m117.56 363.75c-31.492-0.035156-62.367-8.7266-89.25-25.125l-220.5-127.88c-5.7812-3.3555-9.3398-9.5352-9.3398-16.219s3.5586-12.863 9.3398-16.219l218.25-128.25c78.375-39.75 159.94-30 208.69 24.562 16.133 15.656 28.996 34.355 37.848 55.02 8.8516 20.664 13.512 42.879 13.715 65.355 0.12109 22.141-4.1562 44.086-12.59 64.559-8.4336 20.469-20.852 39.062-36.535 54.691-31.801 31.609-74.789 49.395-119.62 49.5zm-262.5-168.75 192.75 112.5c25.43 15.59 55.348 22.215 84.984 18.816 29.633-3.3984 57.273-16.625 78.516-37.566 24.609-24.93 38.129-58.727 37.5-93.75 0.003906-35.27-14.188-69.059-39.375-93.75-0.80469-0.82812-1.5547-1.7031-2.25-2.625-37.5-41.25-101.06-47.625-162.94-16.5z"/>
</svg>
